P1
21 21
111111100101101111111
100000101101001000001
101110101100101011101
101110100101001011101
101110101000101011101
100000101001101000001
111111101010101111111
000000001111100000000
110100110110001110110
000101011110001110011
101001100110100101101
011011011111001011011
111010110010110110000
000000001011000000101
111111101000001111110
100000100111100100001
101110100001010000010
101110101110000111111
101110100100101010101
100000101001010000000
111111101100101101010
